<mxfile host="65bd71144e">
    <diagram id="TPTl9bRarmr86iWLrQ_E" name="Page-1">
        <mxGraphModel dx="936" dy="-45" grid="1" gridSize="10" guides="1" tooltips="1" connect="1" arrows="1" fold="1" page="1" pageScale="1" pageWidth="850" pageHeight="1100" math="0" shadow="0">
            <root>
                <mxCell id="0"/>
                <mxCell id="1" parent="0"/>
                <mxCell id="40" value="&lt;span style=&quot;color: rgba(0 , 0 , 0 , 0) ; font-family: monospace ; font-size: 0px&quot;&gt;v&lt;/span&gt;" style="rounded=0;whiteSpace=wrap;html=1;fontSize=9;" vertex="1" parent="1">
                    <mxGeometry x="43" y="1160" width="160" height="354" as="geometry"/>
                </mxCell>
                <mxCell id="41" value="Logo" style="rounded=0;whiteSpace=wrap;html=1;fillColor=#f5f5f5;strokeColor=#666666;fontColor=#333333;" vertex="1" parent="1">
                    <mxGeometry x="43" y="1161" width="120" height="30" as="geometry"/>
                </mxCell>
                <mxCell id="43" value="Home Template" style="text;html=1;strokeColor=none;fillColor=none;align=center;verticalAlign=middle;whiteSpace=wrap;rounded=0;fontSize=10;fontColor=#FF3399;" vertex="1" parent="1">
                    <mxGeometry x="53" y="1140" width="150" height="20" as="geometry"/>
                </mxCell>
                <mxCell id="44" value="" style="endArrow=none;html=1;" edge="1" parent="1">
                    <mxGeometry width="50" height="50" relative="1" as="geometry">
                        <mxPoint x="174" y="1173" as="sourcePoint"/>
                        <mxPoint x="189" y="1173" as="targetPoint"/>
                        <Array as="points">
                            <mxPoint x="174" y="1173"/>
                        </Array>
                    </mxGeometry>
                </mxCell>
                <mxCell id="45" value="" style="endArrow=none;html=1;" edge="1" parent="1">
                    <mxGeometry width="50" height="50" relative="1" as="geometry">
                        <mxPoint x="174" y="1179" as="sourcePoint"/>
                        <mxPoint x="189" y="1179" as="targetPoint"/>
                        <Array as="points">
                            <mxPoint x="174" y="1179"/>
                        </Array>
                    </mxGeometry>
                </mxCell>
                <mxCell id="46" value="" style="endArrow=none;html=1;" edge="1" parent="1">
                    <mxGeometry width="50" height="50" relative="1" as="geometry">
                        <mxPoint x="174" y="1185" as="sourcePoint"/>
                        <mxPoint x="189" y="1185" as="targetPoint"/>
                        <Array as="points">
                            <mxPoint x="174" y="1185"/>
                        </Array>
                    </mxGeometry>
                </mxCell>
                <mxCell id="47" value="&lt;font style=&quot;font-size: 18px&quot;&gt;Map&lt;/font&gt;" style="rounded=0;whiteSpace=wrap;html=1;fillColor=#f5f5f5;strokeColor=#666666;fontColor=#333333;" vertex="1" parent="1">
                    <mxGeometry x="43" y="1200" width="160" height="314" as="geometry"/>
                </mxCell>
                <mxCell id="48" value="&lt;span style=&quot;color: rgba(0 , 0 , 0 , 0) ; font-family: monospace ; font-size: 0px&quot;&gt;%3CmxGraphModel%3E%3Croot%3E%3CmxCell%20id%3D%220%22%2F%3E%3CmxCell%20id%3D%221%22%20parent%3D%220%22%2F%3E%3CmxCell%20id%3D%222%22%20value%3D%22%22%20style%3D%22rounded%3D0%3BwhiteSpace%3Dwrap%3Bhtml%3D1%3B%22%20vertex%3D%221%22%20parent%3D%221%22%3E%3CmxGeometry%20x%3D%2240%22%20y%3D%22735%22%20width%3D%22160%22%20height%3D%22620%22%20as%3D%22geometry%22%2F%3E%3C%2FmxCell%3E%3C%2Froot%3E%3C%2FmxGraphModel%3E&lt;/span&gt;" style="rounded=0;whiteSpace=wrap;html=1;fontSize=9;" vertex="1" parent="1">
                    <mxGeometry x="48" y="1960" width="160" height="354" as="geometry"/>
                </mxCell>
                <mxCell id="49" value="Logo" style="rounded=0;whiteSpace=wrap;html=1;fillColor=#f5f5f5;strokeColor=#666666;fontColor=#333333;" vertex="1" parent="1">
                    <mxGeometry x="48" y="1961" width="120" height="30" as="geometry"/>
                </mxCell>
                <mxCell id="50" value="Login page" style="text;html=1;strokeColor=none;fillColor=none;align=center;verticalAlign=middle;whiteSpace=wrap;rounded=0;fontSize=10;fontColor=#FF3399;" vertex="1" parent="1">
                    <mxGeometry x="52" y="1940" width="150" height="20" as="geometry"/>
                </mxCell>
                <mxCell id="93" value="&lt;div style=&quot;text-align: left&quot;&gt;&lt;font face=&quot;helvetica&quot;&gt;&lt;span style=&quot;font-size: 10px&quot;&gt;&lt;b&gt;Login with Google Account&lt;/b&gt;&lt;/span&gt;&lt;/font&gt;&lt;/div&gt;" style="rounded=0;whiteSpace=wrap;html=1;fontSize=9;strokeColor=#2A2A2A;fontColor=#F0F0F0;" vertex="1" parent="1">
                    <mxGeometry x="58" y="2067" width="140" height="43" as="geometry"/>
                </mxCell>
                <mxCell id="94" value="&lt;div style=&quot;text-align: left&quot;&gt;&lt;font face=&quot;helvetica&quot;&gt;&lt;span style=&quot;font-size: 10px&quot;&gt;&lt;b&gt;button for logging in&lt;/b&gt;&lt;/span&gt;&lt;/font&gt;&lt;/div&gt;" style="rounded=0;whiteSpace=wrap;html=1;fontSize=9;strokeColor=#FFFFFF;fontColor=#F0F0F0;" vertex="1" parent="1">
                    <mxGeometry x="58" y="2113" width="140" height="40" as="geometry"/>
                </mxCell>
                <mxCell id="100" value="&lt;span style=&quot;color: rgba(0 , 0 , 0 , 0) ; font-family: monospace ; font-size: 0px&quot;&gt;%3CmxGraphModel%3E%3Croot%3E%3CmxCell%20id%3D%220%22%2F%3E%3CmxCell%20id%3D%221%22%20parent%3D%220%22%2F%3E%3CmxCell%20id%3D%222%22%20value%3D%22%22%20style%3D%22rounded%3D0%3BwhiteSpace%3Dwrap%3Bhtml%3D1%3B%22%20vertex%3D%221%22%20parent%3D%221%22%3E%3CmxGeometry%20x%3D%2240%22%20y%3D%22735%22%20width%3D%22160%22%20height%3D%22620%22%20as%3D%22geometry%22%2F%3E%3C%2FmxCell%3E%3C%2Froot%3E%3C%2FmxGraphModel%3E&lt;/span&gt;" style="rounded=0;whiteSpace=wrap;html=1;fontSize=9;" vertex="1" parent="1">
                    <mxGeometry x="280" y="1160" width="160" height="354" as="geometry"/>
                </mxCell>
                <mxCell id="101" value="Logo" style="rounded=0;whiteSpace=wrap;html=1;fillColor=#f5f5f5;strokeColor=#666666;fontColor=#333333;" vertex="1" parent="1">
                    <mxGeometry x="280" y="1161" width="120" height="30" as="geometry"/>
                </mxCell>
                <mxCell id="102" value="Selecting a region" style="text;html=1;strokeColor=none;fillColor=none;align=center;verticalAlign=middle;whiteSpace=wrap;rounded=0;fontSize=10;fontColor=#FF3399;" vertex="1" parent="1">
                    <mxGeometry x="290" y="1140" width="150" height="20" as="geometry"/>
                </mxCell>
                <mxCell id="106" value="&lt;font style=&quot;font-size: 18px&quot;&gt;&lt;br&gt;&lt;br&gt;&lt;br&gt;&lt;br&gt;&lt;br&gt;&lt;br&gt;&lt;br&gt;&lt;br&gt;&lt;br&gt;&lt;br&gt;&lt;br&gt;&lt;br&gt;Map&lt;/font&gt;" style="rounded=0;whiteSpace=wrap;html=1;fillColor=#f5f5f5;strokeColor=#666666;fontColor=#333333;" vertex="1" parent="1">
                    <mxGeometry x="280" y="1200" width="160" height="314" as="geometry"/>
                </mxCell>
                <mxCell id="107" value="&lt;div style=&quot;text-align: left&quot;&gt;&lt;br&gt;&lt;/div&gt;" style="rounded=0;whiteSpace=wrap;html=1;fontSize=9;strokeColor=#FFFFFF;fontColor=#F0F0F0;" vertex="1" parent="1">
                    <mxGeometry x="289" y="1215" width="140" height="230" as="geometry"/>
                </mxCell>
                <mxCell id="367" style="edgeStyle=none;html=1;exitX=1;exitY=0.5;exitDx=0;exitDy=0;entryX=0;entryY=0.5;entryDx=0;entryDy=0;fontSize=17;fontColor=#F0F0F0;fillColor=#f5f5f5;strokeColor=#666666;strokeWidth=3;" edge="1" parent="1" source="108" target="116">
                    <mxGeometry relative="1" as="geometry"/>
                </mxCell>
                <mxCell id="108" value="&lt;div style=&quot;text-align: left&quot;&gt;&lt;font face=&quot;helvetica&quot;&gt;&lt;span style=&quot;font-size: 10px&quot;&gt;&lt;b&gt;[Region Name]&lt;/b&gt;&lt;/span&gt;&lt;/font&gt;&lt;/div&gt;" style="rounded=0;whiteSpace=wrap;html=1;fontSize=9;strokeColor=#2A2A2A;fontColor=#F0F0F0;" vertex="1" parent="1">
                    <mxGeometry x="292" y="1219" width="89" height="26" as="geometry"/>
                </mxCell>
                <mxCell id="109" value="&lt;div style=&quot;text-align: left&quot;&gt;&lt;font face=&quot;helvetica&quot;&gt;&lt;span style=&quot;font-size: 10px&quot;&gt;&lt;b&gt;Environmental History&lt;/b&gt;&lt;/span&gt;&lt;/font&gt;&lt;/div&gt;&lt;div style=&quot;text-align: left&quot;&gt;&lt;font face=&quot;helvetica&quot;&gt;&lt;span style=&quot;font-size: 10px&quot;&gt;&lt;b&gt;&amp;nbsp; &amp;nbsp;&lt;i&gt;sahfkalsdjasdadadjkla&lt;/i&gt;&lt;/b&gt;&lt;/span&gt;&lt;/font&gt;&lt;/div&gt;&lt;div style=&quot;text-align: left&quot;&gt;&lt;font face=&quot;helvetica&quot;&gt;&lt;span style=&quot;font-size: 10px&quot;&gt;&lt;b&gt;&lt;i&gt;&amp;nbsp;adjklajdalkdjaklsdj&lt;/i&gt;&lt;/b&gt;&lt;/span&gt;&lt;/font&gt;&lt;/div&gt;&lt;div style=&quot;text-align: left&quot;&gt;&lt;font face=&quot;helvetica&quot;&gt;&lt;span style=&quot;font-size: 10px&quot;&gt;&lt;b&gt;[Show more]&lt;/b&gt;&lt;/span&gt;&lt;/font&gt;&lt;/div&gt;" style="rounded=0;whiteSpace=wrap;html=1;fontSize=9;strokeColor=#2A2A2A;fontColor=#F0F0F0;" vertex="1" parent="1">
                    <mxGeometry x="294" y="1245" width="126" height="56" as="geometry"/>
                </mxCell>
                <mxCell id="110" value="&lt;div style=&quot;text-align: left&quot;&gt;&lt;font face=&quot;helvetica&quot;&gt;&lt;span style=&quot;font-size: 10px&quot;&gt;&lt;b&gt;Carbon Emission&lt;/b&gt;&lt;/span&gt;&lt;/font&gt;&lt;/div&gt;&lt;div style=&quot;text-align: left&quot;&gt;&lt;font face=&quot;helvetica&quot; size=&quot;1&quot;&gt;&lt;b style=&quot;font-size: 8px&quot;&gt;2021 Carbon emission: 12321&lt;/b&gt;&lt;/font&gt;&lt;/div&gt;&lt;div style=&quot;text-align: left&quot;&gt;&lt;font face=&quot;helvetica&quot;&gt;&lt;span style=&quot;font-size: 8px&quot;&gt;&lt;b&gt;Grade: good / bad etc...&lt;/b&gt;&lt;/span&gt;&lt;/font&gt;&lt;/div&gt;&lt;div style=&quot;text-align: left&quot;&gt;&lt;font face=&quot;helvetica&quot;&gt;&lt;span style=&quot;font-size: 8px&quot;&gt;&lt;b&gt;[Show more]&lt;/b&gt;&lt;/span&gt;&lt;/font&gt;&lt;/div&gt;" style="rounded=0;whiteSpace=wrap;html=1;fontSize=9;strokeColor=#2A2A2A;fontColor=#F0F0F0;" vertex="1" parent="1">
                    <mxGeometry x="294" y="1307" width="126" height="56" as="geometry"/>
                </mxCell>
                <mxCell id="111" value="&lt;div style=&quot;text-align: left&quot;&gt;&lt;font face=&quot;helvetica&quot;&gt;&lt;span style=&quot;font-size: 10px&quot;&gt;&lt;b&gt;Environmental Events&lt;/b&gt;&lt;/span&gt;&lt;/font&gt;&lt;/div&gt;" style="rounded=0;whiteSpace=wrap;html=1;fontSize=9;strokeColor=#2A2A2A;fontColor=#F0F0F0;" vertex="1" parent="1">
                    <mxGeometry x="291" y="1365" width="126" height="13" as="geometry"/>
                </mxCell>
                <mxCell id="112" value="event 1" style="rounded=1;whiteSpace=wrap;html=1;fontSize=8;fontColor=#F0F0F0;strokeColor=#FFFFFF;" vertex="1" parent="1">
                    <mxGeometry x="294" y="1380" width="45" height="47" as="geometry"/>
                </mxCell>
                <mxCell id="113" value="event 2" style="rounded=1;whiteSpace=wrap;html=1;fontSize=8;fontColor=#F0F0F0;strokeColor=#FFFFFF;" vertex="1" parent="1">
                    <mxGeometry x="344" y="1380" width="45" height="47" as="geometry"/>
                </mxCell>
                <mxCell id="114" value="event 3" style="rounded=1;whiteSpace=wrap;html=1;fontSize=8;fontColor=#F0F0F0;strokeColor=#FFFFFF;" vertex="1" parent="1">
                    <mxGeometry x="394" y="1380" width="45" height="47" as="geometry"/>
                </mxCell>
                <mxCell id="115" value="&lt;div style=&quot;text-align: left&quot;&gt;&lt;font face=&quot;helvetica&quot;&gt;&lt;span style=&quot;font-size: 10px&quot;&gt;[show more]&lt;/span&gt;&lt;/font&gt;&lt;/div&gt;" style="rounded=0;whiteSpace=wrap;html=1;fontSize=9;strokeColor=#2A2A2A;fontColor=#F0F0F0;" vertex="1" parent="1">
                    <mxGeometry x="299" y="1429" width="60" height="13" as="geometry"/>
                </mxCell>
                <mxCell id="116" value="&lt;span style=&quot;color: rgba(0 , 0 , 0 , 0) ; font-family: monospace ; font-size: 0px&quot;&gt;v&lt;/span&gt;" style="rounded=0;whiteSpace=wrap;html=1;fontSize=9;" vertex="1" parent="1">
                    <mxGeometry x="503" y="1160" width="160" height="354" as="geometry"/>
                </mxCell>
                <mxCell id="117" value="Logo" style="rounded=0;whiteSpace=wrap;html=1;fillColor=#f5f5f5;strokeColor=#666666;fontColor=#333333;" vertex="1" parent="1">
                    <mxGeometry x="503" y="1161" width="120" height="30" as="geometry"/>
                </mxCell>
                <mxCell id="118" value="Environmental History" style="text;html=1;strokeColor=none;fillColor=none;align=center;verticalAlign=middle;whiteSpace=wrap;rounded=0;fontSize=10;fontColor=#FF3399;" vertex="1" parent="1">
                    <mxGeometry x="513" y="1140" width="150" height="20" as="geometry"/>
                </mxCell>
                <mxCell id="119" value="" style="endArrow=none;html=1;" edge="1" parent="1">
                    <mxGeometry width="50" height="50" relative="1" as="geometry">
                        <mxPoint x="634" y="1173" as="sourcePoint"/>
                        <mxPoint x="649" y="1173" as="targetPoint"/>
                        <Array as="points">
                            <mxPoint x="634" y="1173"/>
                        </Array>
                    </mxGeometry>
                </mxCell>
                <mxCell id="120" value="" style="endArrow=none;html=1;" edge="1" parent="1">
                    <mxGeometry width="50" height="50" relative="1" as="geometry">
                        <mxPoint x="634" y="1179" as="sourcePoint"/>
                        <mxPoint x="649" y="1179" as="targetPoint"/>
                        <Array as="points">
                            <mxPoint x="634" y="1179"/>
                        </Array>
                    </mxGeometry>
                </mxCell>
                <mxCell id="121" value="" style="endArrow=none;html=1;" edge="1" parent="1">
                    <mxGeometry width="50" height="50" relative="1" as="geometry">
                        <mxPoint x="634" y="1185" as="sourcePoint"/>
                        <mxPoint x="649" y="1185" as="targetPoint"/>
                        <Array as="points">
                            <mxPoint x="634" y="1185"/>
                        </Array>
                    </mxGeometry>
                </mxCell>
                <mxCell id="123" value="&lt;div style=&quot;text-align: left&quot;&gt;&lt;font face=&quot;helvetica&quot;&gt;&lt;span style=&quot;font-size: 10px&quot;&gt;&lt;b&gt;[Region Name]&lt;/b&gt;&lt;/span&gt;&lt;/font&gt;&lt;/div&gt;" style="rounded=0;whiteSpace=wrap;html=1;fontSize=9;strokeColor=#2A2A2A;fontColor=#F0F0F0;" vertex="1" parent="1">
                    <mxGeometry x="539.5" y="1202" width="89" height="26" as="geometry"/>
                </mxCell>
                <mxCell id="124" value="Images. etc" style="rounded=1;whiteSpace=wrap;html=1;fontSize=8;fontColor=#F0F0F0;strokeColor=#FFFFFF;" vertex="1" parent="1">
                    <mxGeometry x="523" y="1234" width="120" height="74" as="geometry"/>
                </mxCell>
                <mxCell id="125" value="&lt;div style=&quot;text-align: left&quot;&gt;&lt;font face=&quot;helvetica&quot;&gt;&lt;span style=&quot;font-size: 10px&quot;&gt;&lt;b&gt;Relate Article:&lt;/b&gt;&lt;/span&gt;&lt;/font&gt;&lt;/div&gt;&lt;div style=&quot;text-align: left&quot;&gt;&lt;font face=&quot;helvetica&quot;&gt;&lt;span style=&quot;font-size: 10px&quot;&gt;sdadakdlakljakljldsdadaa&lt;/span&gt;&lt;/font&gt;&lt;/div&gt;&lt;div style=&quot;text-align: left&quot;&gt;&lt;font face=&quot;helvetica&quot;&gt;&lt;span style=&quot;font-size: 10px&quot;&gt;asdadasdadadasdasdad&lt;/span&gt;&lt;/font&gt;&lt;/div&gt;&lt;div style=&quot;text-align: left&quot;&gt;&lt;font face=&quot;helvetica&quot;&gt;&lt;span style=&quot;font-size: 10px&quot;&gt;adasdadasdasdasdasd&lt;/span&gt;&lt;/font&gt;&lt;/div&gt;&lt;div style=&quot;text-align: left&quot;&gt;&lt;font face=&quot;helvetica&quot;&gt;&lt;span style=&quot;font-size: 10px&quot;&gt;adadadasdadadsads&lt;/span&gt;&lt;/font&gt;&lt;/div&gt;&lt;div style=&quot;text-align: left&quot;&gt;&lt;font face=&quot;helvetica&quot;&gt;&lt;span style=&quot;font-size: 10px&quot;&gt;adasdadadadasd&lt;/span&gt;&lt;/font&gt;&lt;/div&gt;&lt;div style=&quot;text-align: left&quot;&gt;&lt;font face=&quot;helvetica&quot;&gt;&lt;span style=&quot;font-size: 10px&quot;&gt;....&lt;/span&gt;&lt;/font&gt;&lt;/div&gt;&lt;div style=&quot;text-align: left&quot;&gt;&lt;font face=&quot;helvetica&quot;&gt;&lt;span style=&quot;font-size: 10px&quot;&gt;&lt;br&gt;&lt;/span&gt;&lt;/font&gt;&lt;/div&gt;" style="rounded=0;whiteSpace=wrap;html=1;fontSize=9;strokeColor=#2A2A2A;fontColor=#F0F0F0;" vertex="1" parent="1">
                    <mxGeometry x="523" y="1318" width="126" height="90" as="geometry"/>
                </mxCell>
                <mxCell id="126" value="&lt;div style=&quot;text-align: left&quot;&gt;&lt;font face=&quot;helvetica&quot; style=&quot;font-size: 8px&quot;&gt;[Link to some external resources]&lt;/font&gt;&lt;/div&gt;" style="rounded=0;whiteSpace=wrap;html=1;fontSize=9;strokeColor=#2A2A2A;fontColor=#F0F0F0;" vertex="1" parent="1">
                    <mxGeometry x="513" y="1408" width="126" height="20" as="geometry"/>
                </mxCell>
                <mxCell id="127" value="&lt;span style=&quot;color: rgba(0 , 0 , 0 , 0) ; font-family: monospace ; font-size: 0px&quot;&gt;v&lt;/span&gt;" style="rounded=0;whiteSpace=wrap;html=1;fontSize=9;" vertex="1" parent="1">
                    <mxGeometry x="286" y="1557" width="160" height="354" as="geometry"/>
                </mxCell>
                <mxCell id="128" value="Logo" style="rounded=0;whiteSpace=wrap;html=1;fillColor=#f5f5f5;strokeColor=#666666;fontColor=#333333;" vertex="1" parent="1">
                    <mxGeometry x="286" y="1558" width="120" height="30" as="geometry"/>
                </mxCell>
                <mxCell id="129" value="Events" style="text;html=1;strokeColor=none;fillColor=none;align=center;verticalAlign=middle;whiteSpace=wrap;rounded=0;fontSize=10;fontColor=#FF3399;" vertex="1" parent="1">
                    <mxGeometry x="293" y="1537" width="150" height="20" as="geometry"/>
                </mxCell>
                <mxCell id="130" value="" style="endArrow=none;html=1;" edge="1" parent="1">
                    <mxGeometry width="50" height="50" relative="1" as="geometry">
                        <mxPoint x="417" y="1570" as="sourcePoint"/>
                        <mxPoint x="432" y="1570" as="targetPoint"/>
                        <Array as="points">
                            <mxPoint x="417" y="1570"/>
                        </Array>
                    </mxGeometry>
                </mxCell>
                <mxCell id="131" value="" style="endArrow=none;html=1;" edge="1" parent="1">
                    <mxGeometry width="50" height="50" relative="1" as="geometry">
                        <mxPoint x="417" y="1576" as="sourcePoint"/>
                        <mxPoint x="432" y="1576" as="targetPoint"/>
                        <Array as="points">
                            <mxPoint x="417" y="1576"/>
                        </Array>
                    </mxGeometry>
                </mxCell>
                <mxCell id="132" value="" style="endArrow=none;html=1;" edge="1" parent="1">
                    <mxGeometry width="50" height="50" relative="1" as="geometry">
                        <mxPoint x="417" y="1582" as="sourcePoint"/>
                        <mxPoint x="432" y="1582" as="targetPoint"/>
                        <Array as="points">
                            <mxPoint x="417" y="1582"/>
                        </Array>
                    </mxGeometry>
                </mxCell>
                <mxCell id="133" value="&lt;div style=&quot;text-align: left&quot;&gt;&lt;font face=&quot;helvetica&quot;&gt;&lt;span style=&quot;font-size: 10px&quot;&gt;&lt;b&gt;[Events in the region]&lt;/b&gt;&lt;/span&gt;&lt;/font&gt;&lt;/div&gt;" style="rounded=0;whiteSpace=wrap;html=1;fontSize=9;strokeColor=#2A2A2A;fontColor=#F0F0F0;" vertex="1" parent="1">
                    <mxGeometry x="305" y="1599" width="120" height="26" as="geometry"/>
                </mxCell>
                <mxCell id="145" value="&lt;span style=&quot;color: rgba(0 , 0 , 0 , 0) ; font-family: monospace ; font-size: 0px&quot;&gt;v&lt;/span&gt;" style="rounded=0;whiteSpace=wrap;html=1;fontSize=9;" vertex="1" parent="1">
                    <mxGeometry x="513" y="1557" width="160" height="354" as="geometry"/>
                </mxCell>
                <mxCell id="146" value="Logo" style="rounded=0;whiteSpace=wrap;html=1;fillColor=#f5f5f5;strokeColor=#666666;fontColor=#333333;" vertex="1" parent="1">
                    <mxGeometry x="513" y="1558" width="120" height="30" as="geometry"/>
                </mxCell>
                <mxCell id="147" value="Carbon emission" style="text;html=1;strokeColor=none;fillColor=none;align=center;verticalAlign=middle;whiteSpace=wrap;rounded=0;fontSize=10;fontColor=#FF3399;" vertex="1" parent="1">
                    <mxGeometry x="538" y="1537" width="150" height="20" as="geometry"/>
                </mxCell>
                <mxCell id="148" value="" style="endArrow=none;html=1;" edge="1" parent="1">
                    <mxGeometry width="50" height="50" relative="1" as="geometry">
                        <mxPoint x="644" y="1570" as="sourcePoint"/>
                        <mxPoint x="659" y="1570" as="targetPoint"/>
                        <Array as="points">
                            <mxPoint x="644" y="1570"/>
                        </Array>
                    </mxGeometry>
                </mxCell>
                <mxCell id="149" value="" style="endArrow=none;html=1;" edge="1" parent="1">
                    <mxGeometry width="50" height="50" relative="1" as="geometry">
                        <mxPoint x="644" y="1576" as="sourcePoint"/>
                        <mxPoint x="659" y="1576" as="targetPoint"/>
                        <Array as="points">
                            <mxPoint x="644" y="1576"/>
                        </Array>
                    </mxGeometry>
                </mxCell>
                <mxCell id="150" value="" style="endArrow=none;html=1;" edge="1" parent="1">
                    <mxGeometry width="50" height="50" relative="1" as="geometry">
                        <mxPoint x="644" y="1582" as="sourcePoint"/>
                        <mxPoint x="659" y="1582" as="targetPoint"/>
                        <Array as="points">
                            <mxPoint x="644" y="1582"/>
                        </Array>
                    </mxGeometry>
                </mxCell>
                <mxCell id="151" value="&lt;div style=&quot;text-align: left&quot;&gt;&lt;font face=&quot;helvetica&quot;&gt;&lt;span style=&quot;font-size: 10px&quot;&gt;&lt;b&gt;[Events in the region]&lt;/b&gt;&lt;/span&gt;&lt;/font&gt;&lt;/div&gt;" style="rounded=0;whiteSpace=wrap;html=1;fontSize=9;strokeColor=#2A2A2A;fontColor=#F0F0F0;" vertex="1" parent="1">
                    <mxGeometry x="532" y="1599" width="120" height="26" as="geometry"/>
                </mxCell>
                <mxCell id="152" value="&lt;font style=&quot;font-size: 17px&quot;&gt;Time Series chart for carbon emission&lt;/font&gt;" style="rounded=1;whiteSpace=wrap;html=1;fontSize=8;fontColor=#F0F0F0;strokeColor=#FFFFFF;" vertex="1" parent="1">
                    <mxGeometry x="517" y="1634" width="150" height="141" as="geometry"/>
                </mxCell>
                <mxCell id="162" value="&lt;span style=&quot;font-size: 17px&quot;&gt;Carbon emisson&amp;nbsp;&lt;br&gt;of the city&lt;br&gt;compared to other cities&lt;br&gt;&lt;/span&gt;" style="rounded=1;whiteSpace=wrap;html=1;fontSize=8;fontColor=#F0F0F0;strokeColor=#FFFFFF;" vertex="1" parent="1">
                    <mxGeometry x="518" y="1785" width="149" height="121" as="geometry"/>
                </mxCell>
                <mxCell id="164" value="" style="group" vertex="1" connectable="0" parent="1">
                    <mxGeometry x="285" y="1626" width="160" height="270" as="geometry"/>
                </mxCell>
                <mxCell id="165" value="Show more" style="text;strokeColor=none;fillColor=none;spacing=0;spacingTop=0;whiteSpace=wrap;overflow=hidden;rounded=0;verticalAlign=top;horizontal=1;fontStyle=4;fontSize=9;align=center;" vertex="1" parent="164">
                    <mxGeometry y="250" width="160" height="20" as="geometry"/>
                </mxCell>
                <mxCell id="166" value="" style="group" vertex="1" connectable="0" parent="164">
                    <mxGeometry x="10" width="150" height="250" as="geometry"/>
                </mxCell>
                <mxCell id="167" value="" style="group" vertex="1" connectable="0" parent="166">
                    <mxGeometry width="150" height="50" as="geometry"/>
                </mxCell>
                <mxCell id="168" value="thumb&lt;br&gt;img" style="rounded=0;whiteSpace=wrap;html=1;fillColor=#f5f5f5;strokeColor=#666666;fontColor=#333333;" vertex="1" parent="167">
                    <mxGeometry y="5" width="40" height="40" as="geometry"/>
                </mxCell>
                <mxCell id="169" value="" style="group" vertex="1" connectable="0" parent="167">
                    <mxGeometry x="50" width="100" height="50" as="geometry"/>
                </mxCell>
                <mxCell id="170" value="[List item title]" style="text;strokeColor=none;fillColor=none;spacing=0;spacingTop=0;whiteSpace=wrap;overflow=hidden;rounded=0;verticalAlign=top;horizontal=1;fontSize=9;fontStyle=1" vertex="1" parent="169">
                    <mxGeometry width="100" height="20" as="geometry"/>
                </mxCell>
                <mxCell id="172" value="[Description of list item] lorem ipsum dolor sit." style="text;strokeColor=none;fillColor=none;spacing=0;spacingTop=0;whiteSpace=wrap;overflow=hidden;rounded=0;verticalAlign=top;horizontal=1;fontSize=9;fontStyle=0" vertex="1" parent="169">
                    <mxGeometry y="10" width="100" height="30" as="geometry"/>
                </mxCell>
                <mxCell id="173" value="" style="group" vertex="1" connectable="0" parent="166">
                    <mxGeometry y="50" width="150" height="50" as="geometry"/>
                </mxCell>
                <mxCell id="174" value="thumb&lt;br&gt;img" style="rounded=0;whiteSpace=wrap;html=1;fillColor=#f5f5f5;strokeColor=#666666;fontColor=#333333;" vertex="1" parent="173">
                    <mxGeometry y="5" width="40" height="40" as="geometry"/>
                </mxCell>
                <mxCell id="175" value="" style="group" vertex="1" connectable="0" parent="173">
                    <mxGeometry x="50" width="100" height="50" as="geometry"/>
                </mxCell>
                <mxCell id="176" value="[List item title]" style="text;strokeColor=none;fillColor=none;spacing=0;spacingTop=0;whiteSpace=wrap;overflow=hidden;rounded=0;verticalAlign=top;horizontal=1;fontSize=9;fontStyle=1" vertex="1" parent="175">
                    <mxGeometry width="100" height="20" as="geometry"/>
                </mxCell>
                <mxCell id="178" value="[Description of list item] lorem ipsum dolor sit." style="text;strokeColor=none;fillColor=none;spacing=0;spacingTop=0;whiteSpace=wrap;overflow=hidden;rounded=0;verticalAlign=top;horizontal=1;fontSize=9;fontStyle=0" vertex="1" parent="175">
                    <mxGeometry y="10" width="100" height="30" as="geometry"/>
                </mxCell>
                <mxCell id="179" value="" style="group" vertex="1" connectable="0" parent="166">
                    <mxGeometry y="100" width="150" height="50" as="geometry"/>
                </mxCell>
                <mxCell id="180" value="thumb&lt;br&gt;img" style="rounded=0;whiteSpace=wrap;html=1;fillColor=#f5f5f5;strokeColor=#666666;fontColor=#333333;" vertex="1" parent="179">
                    <mxGeometry y="5" width="40" height="40" as="geometry"/>
                </mxCell>
                <mxCell id="181" value="" style="group" vertex="1" connectable="0" parent="179">
                    <mxGeometry x="50" width="100" height="50" as="geometry"/>
                </mxCell>
                <mxCell id="182" value="[List item title]" style="text;strokeColor=none;fillColor=none;spacing=0;spacingTop=0;whiteSpace=wrap;overflow=hidden;rounded=0;verticalAlign=top;horizontal=1;fontSize=9;fontStyle=1" vertex="1" parent="181">
                    <mxGeometry width="100" height="20" as="geometry"/>
                </mxCell>
                <mxCell id="184" value="[Description of list item] lorem ipsum dolor sit." style="text;strokeColor=none;fillColor=none;spacing=0;spacingTop=0;whiteSpace=wrap;overflow=hidden;rounded=0;verticalAlign=top;horizontal=1;fontSize=9;fontStyle=0" vertex="1" parent="181">
                    <mxGeometry y="10" width="100" height="30" as="geometry"/>
                </mxCell>
                <mxCell id="185" value="" style="group" vertex="1" connectable="0" parent="166">
                    <mxGeometry y="150" width="150" height="50" as="geometry"/>
                </mxCell>
                <mxCell id="186" value="thumb&lt;br&gt;img" style="rounded=0;whiteSpace=wrap;html=1;fillColor=#f5f5f5;strokeColor=#666666;fontColor=#333333;" vertex="1" parent="185">
                    <mxGeometry y="5" width="40" height="40" as="geometry"/>
                </mxCell>
                <mxCell id="187" value="" style="group" vertex="1" connectable="0" parent="185">
                    <mxGeometry x="50" width="100" height="50" as="geometry"/>
                </mxCell>
                <mxCell id="188" value="[List item title]" style="text;strokeColor=none;fillColor=none;spacing=0;spacingTop=0;whiteSpace=wrap;overflow=hidden;rounded=0;verticalAlign=top;horizontal=1;fontSize=9;fontStyle=1" vertex="1" parent="187">
                    <mxGeometry width="100" height="20" as="geometry"/>
                </mxCell>
                <mxCell id="190" value="[Description of list item] lorem ipsum dolor sit." style="text;strokeColor=none;fillColor=none;spacing=0;spacingTop=0;whiteSpace=wrap;overflow=hidden;rounded=0;verticalAlign=top;horizontal=1;fontSize=9;fontStyle=0" vertex="1" parent="187">
                    <mxGeometry y="10" width="100" height="30" as="geometry"/>
                </mxCell>
                <mxCell id="191" value="" style="group" vertex="1" connectable="0" parent="166">
                    <mxGeometry y="200" width="150" height="50" as="geometry"/>
                </mxCell>
                <mxCell id="192" value="thumb&lt;br&gt;img" style="rounded=0;whiteSpace=wrap;html=1;fillColor=#f5f5f5;strokeColor=#666666;fontColor=#333333;" vertex="1" parent="191">
                    <mxGeometry y="5" width="40" height="40" as="geometry"/>
                </mxCell>
                <mxCell id="193" value="" style="group" vertex="1" connectable="0" parent="191">
                    <mxGeometry x="50" width="100" height="50" as="geometry"/>
                </mxCell>
                <mxCell id="194" value="[List item title]" style="text;strokeColor=none;fillColor=none;spacing=0;spacingTop=0;whiteSpace=wrap;overflow=hidden;rounded=0;verticalAlign=top;horizontal=1;fontSize=9;fontStyle=1" vertex="1" parent="193">
                    <mxGeometry width="100" height="20" as="geometry"/>
                </mxCell>
                <mxCell id="196" value="[Description of list item] lorem ipsum dolor sit." style="text;strokeColor=none;fillColor=none;spacing=0;spacingTop=0;whiteSpace=wrap;overflow=hidden;rounded=0;verticalAlign=top;horizontal=1;fontSize=9;fontStyle=0" vertex="1" parent="193">
                    <mxGeometry y="10" width="100" height="30" as="geometry"/>
                </mxCell>
                <mxCell id="207" value="&lt;span style=&quot;color: rgba(0 , 0 , 0 , 0) ; font-family: monospace ; font-size: 0px&quot;&gt;sac&lt;/span&gt;" style="rounded=0;whiteSpace=wrap;html=1;fontSize=9;" vertex="1" parent="1">
                    <mxGeometry x="44.5" y="1560" width="160" height="354" as="geometry"/>
                </mxCell>
                <mxCell id="208" value="Logo" style="rounded=0;whiteSpace=wrap;html=1;fillColor=#f5f5f5;strokeColor=#666666;fontColor=#333333;" vertex="1" parent="1">
                    <mxGeometry x="44.5" y="1561" width="120" height="30" as="geometry"/>
                </mxCell>
                <mxCell id="209" value="menu bar" style="text;html=1;strokeColor=none;fillColor=none;align=center;verticalAlign=middle;whiteSpace=wrap;rounded=0;fontSize=10;fontColor=#FF3399;" vertex="1" parent="1">
                    <mxGeometry x="46.5" y="1540" width="150" height="20" as="geometry"/>
                </mxCell>
                <mxCell id="210" value="" style="endArrow=none;html=1;" edge="1" parent="1">
                    <mxGeometry width="50" height="50" relative="1" as="geometry">
                        <mxPoint x="175.5" y="1573" as="sourcePoint"/>
                        <mxPoint x="190.5" y="1573" as="targetPoint"/>
                        <Array as="points">
                            <mxPoint x="175.5" y="1573"/>
                        </Array>
                    </mxGeometry>
                </mxCell>
                <mxCell id="211" value="" style="endArrow=none;html=1;" edge="1" parent="1">
                    <mxGeometry width="50" height="50" relative="1" as="geometry">
                        <mxPoint x="175.5" y="1579" as="sourcePoint"/>
                        <mxPoint x="190.5" y="1579" as="targetPoint"/>
                        <Array as="points">
                            <mxPoint x="175.5" y="1579"/>
                        </Array>
                    </mxGeometry>
                </mxCell>
                <mxCell id="212" value="" style="endArrow=none;html=1;" edge="1" parent="1">
                    <mxGeometry width="50" height="50" relative="1" as="geometry">
                        <mxPoint x="175.5" y="1585" as="sourcePoint"/>
                        <mxPoint x="190.5" y="1585" as="targetPoint"/>
                        <Array as="points">
                            <mxPoint x="175.5" y="1585"/>
                        </Array>
                    </mxGeometry>
                </mxCell>
                <mxCell id="218" value="&lt;font style=&quot;font-size: 18px&quot;&gt;Map&lt;/font&gt;" style="rounded=0;whiteSpace=wrap;html=1;fillColor=#f5f5f5;strokeColor=#666666;fontColor=#333333;" vertex="1" parent="1">
                    <mxGeometry x="44.5" y="1600" width="160" height="314" as="geometry"/>
                </mxCell>
                <mxCell id="219" value="" style="rounded=0;whiteSpace=wrap;html=1;fontSize=17;fontColor=#F0F0F0;strokeColor=#FFFFFF;" vertex="1" parent="1">
                    <mxGeometry x="67.5" y="1591" width="137" height="194" as="geometry"/>
                </mxCell>
                <mxCell id="379" style="edgeStyle=none;html=1;exitX=0.5;exitY=1;exitDx=0;exitDy=0;fontSize=17;fontColor=#F0F0F0;strokeWidth=3;fillColor=#f5f5f5;strokeColor=#666666;" edge="1" parent="1" source="220" target="329">
                    <mxGeometry relative="1" as="geometry"/>
                </mxCell>
                <mxCell id="220" value="saved events" style="rounded=0;whiteSpace=wrap;html=1;fontSize=17;fontColor=#F0F0F0;strokeColor=#FFFFFF;" vertex="1" parent="1">
                    <mxGeometry x="77.5" y="1601" width="113" height="34" as="geometry"/>
                </mxCell>
                <mxCell id="221" value="settings" style="rounded=0;whiteSpace=wrap;html=1;fontSize=17;fontColor=#F0F0F0;strokeColor=#FFFFFF;" vertex="1" parent="1">
                    <mxGeometry x="77.5" y="1645" width="113" height="34" as="geometry"/>
                </mxCell>
                <mxCell id="378" style="edgeStyle=none;html=1;exitX=0.5;exitY=1;exitDx=0;exitDy=0;entryX=0;entryY=0.25;entryDx=0;entryDy=0;fontSize=17;fontColor=#F0F0F0;strokeWidth=3;fillColor=#f5f5f5;strokeColor=#666666;" edge="1" parent="1" source="224" target="225">
                    <mxGeometry relative="1" as="geometry"/>
                </mxCell>
                <mxCell id="224" value="About us" style="rounded=0;whiteSpace=wrap;html=1;fontSize=17;fontColor=#F0F0F0;strokeColor=#FFFFFF;" vertex="1" parent="1">
                    <mxGeometry x="77.5" y="1689" width="113" height="34" as="geometry"/>
                </mxCell>
                <mxCell id="225" value="&lt;span style=&quot;color: rgba(0 , 0 , 0 , 0) ; font-family: monospace ; font-size: 0px&quot;&gt;v&lt;/span&gt;" style="rounded=0;whiteSpace=wrap;html=1;fontSize=9;" vertex="1" parent="1">
                    <mxGeometry x="262" y="1960" width="160" height="362" as="geometry"/>
                </mxCell>
                <mxCell id="226" value="Logo" style="rounded=0;whiteSpace=wrap;html=1;fillColor=#f5f5f5;strokeColor=#666666;fontColor=#333333;" vertex="1" parent="1">
                    <mxGeometry x="262" y="1961" width="120" height="30" as="geometry"/>
                </mxCell>
                <mxCell id="227" value="About us" style="text;html=1;strokeColor=none;fillColor=none;align=center;verticalAlign=middle;whiteSpace=wrap;rounded=0;fontSize=10;fontColor=#FF3399;" vertex="1" parent="1">
                    <mxGeometry x="293" y="1940" width="150" height="20" as="geometry"/>
                </mxCell>
                <mxCell id="228" value="" style="endArrow=none;html=1;" edge="1" parent="1">
                    <mxGeometry width="50" height="50" relative="1" as="geometry">
                        <mxPoint x="393" y="1973" as="sourcePoint"/>
                        <mxPoint x="408" y="1973" as="targetPoint"/>
                        <Array as="points">
                            <mxPoint x="393" y="1973"/>
                        </Array>
                    </mxGeometry>
                </mxCell>
                <mxCell id="229" value="" style="endArrow=none;html=1;" edge="1" parent="1">
                    <mxGeometry width="50" height="50" relative="1" as="geometry">
                        <mxPoint x="393" y="1979" as="sourcePoint"/>
                        <mxPoint x="408" y="1979" as="targetPoint"/>
                        <Array as="points">
                            <mxPoint x="393" y="1979"/>
                        </Array>
                    </mxGeometry>
                </mxCell>
                <mxCell id="230" value="" style="endArrow=none;html=1;" edge="1" parent="1">
                    <mxGeometry width="50" height="50" relative="1" as="geometry">
                        <mxPoint x="393" y="1985" as="sourcePoint"/>
                        <mxPoint x="408" y="1985" as="targetPoint"/>
                        <Array as="points">
                            <mxPoint x="393" y="1985"/>
                        </Array>
                    </mxGeometry>
                </mxCell>
                <mxCell id="261" value="thumb&lt;br&gt;img" style="rounded=0;whiteSpace=wrap;html=1;fillColor=#f5f5f5;strokeColor=#666666;fontColor=#333333;" vertex="1" parent="1">
                    <mxGeometry x="272" y="2012" width="40" height="40" as="geometry"/>
                </mxCell>
                <mxCell id="318" value="[Team member name]&#10;Description" style="text;strokeColor=none;fillColor=none;spacing=0;spacingTop=0;whiteSpace=wrap;overflow=hidden;rounded=0;verticalAlign=top;horizontal=1;fontSize=9;fontStyle=0" vertex="1" parent="1">
                    <mxGeometry x="320" y="2017" width="100" height="30" as="geometry"/>
                </mxCell>
                <mxCell id="319" value="thumb&lt;br&gt;img" style="rounded=0;whiteSpace=wrap;html=1;fillColor=#f5f5f5;strokeColor=#666666;fontColor=#333333;" vertex="1" parent="1">
                    <mxGeometry x="272" y="2065" width="40" height="40" as="geometry"/>
                </mxCell>
                <mxCell id="320" value="[Team member name]&#10;Description" style="text;strokeColor=none;fillColor=none;spacing=0;spacingTop=0;whiteSpace=wrap;overflow=hidden;rounded=0;verticalAlign=top;horizontal=1;fontSize=9;fontStyle=0" vertex="1" parent="1">
                    <mxGeometry x="320" y="2070" width="100" height="30" as="geometry"/>
                </mxCell>
                <mxCell id="321" value="thumb&lt;br&gt;img" style="rounded=0;whiteSpace=wrap;html=1;fillColor=#f5f5f5;strokeColor=#666666;fontColor=#333333;" vertex="1" parent="1">
                    <mxGeometry x="272" y="2114" width="40" height="40" as="geometry"/>
                </mxCell>
                <mxCell id="322" value="[Team member name]&#10;Description" style="text;strokeColor=none;fillColor=none;spacing=0;spacingTop=0;whiteSpace=wrap;overflow=hidden;rounded=0;verticalAlign=top;horizontal=1;fontSize=9;fontStyle=0" vertex="1" parent="1">
                    <mxGeometry x="320" y="2119" width="100" height="30" as="geometry"/>
                </mxCell>
                <mxCell id="323" value="thumb&lt;br&gt;img" style="rounded=0;whiteSpace=wrap;html=1;fillColor=#f5f5f5;strokeColor=#666666;fontColor=#333333;" vertex="1" parent="1">
                    <mxGeometry x="272" y="2162" width="40" height="40" as="geometry"/>
                </mxCell>
                <mxCell id="324" value="[Team member name]&#10;Description" style="text;strokeColor=none;fillColor=none;spacing=0;spacingTop=0;whiteSpace=wrap;overflow=hidden;rounded=0;verticalAlign=top;horizontal=1;fontSize=9;fontStyle=0" vertex="1" parent="1">
                    <mxGeometry x="320" y="2167" width="100" height="30" as="geometry"/>
                </mxCell>
                <mxCell id="325" value="" style="group" vertex="1" connectable="0" parent="1">
                    <mxGeometry x="272" y="2212" width="160" height="90" as="geometry"/>
                </mxCell>
                <mxCell id="326" value="1.adadasfsaf&#10;2.fsdfaffsaf&#10;3.fadfasfasd&#10;4.fasdfasdfasdgsa" style="text;strokeColor=none;fillColor=none;spacing=5;spacingTop=-5;whiteSpace=wrap;overflow=hidden;rounded=0;verticalAlign=top;horizontal=1;fontSize=9;" vertex="1" parent="325">
                    <mxGeometry y="20" width="140" height="70" as="geometry"/>
                </mxCell>
                <mxCell id="327" value="[Frequently asked question]" style="text;strokeColor=none;fillColor=none;spacing=5;spacingTop=0;whiteSpace=wrap;overflow=hidden;rounded=0;verticalAlign=top;horizontal=1;fontSize=10;fontStyle=1" vertex="1" parent="325">
                    <mxGeometry width="160" height="30" as="geometry"/>
                </mxCell>
                <mxCell id="329" value="&lt;span style=&quot;color: rgba(0 , 0 , 0 , 0) ; font-family: monospace ; font-size: 0px&quot;&gt;v&lt;/span&gt;" style="rounded=0;whiteSpace=wrap;html=1;fontSize=9;" vertex="1" parent="1">
                    <mxGeometry x="483" y="1960" width="160" height="354" as="geometry"/>
                </mxCell>
                <mxCell id="330" value="Logo" style="rounded=0;whiteSpace=wrap;html=1;fillColor=#f5f5f5;strokeColor=#666666;fontColor=#333333;" vertex="1" parent="1">
                    <mxGeometry x="483" y="1961" width="120" height="30" as="geometry"/>
                </mxCell>
                <mxCell id="331" value="Saved events" style="text;html=1;strokeColor=none;fillColor=none;align=center;verticalAlign=middle;whiteSpace=wrap;rounded=0;fontSize=10;fontColor=#FF3399;" vertex="1" parent="1">
                    <mxGeometry x="511" y="1940" width="150" height="20" as="geometry"/>
                </mxCell>
                <mxCell id="332" value="" style="endArrow=none;html=1;" edge="1" parent="1">
                    <mxGeometry width="50" height="50" relative="1" as="geometry">
                        <mxPoint x="614" y="1973" as="sourcePoint"/>
                        <mxPoint x="629" y="1973" as="targetPoint"/>
                        <Array as="points">
                            <mxPoint x="614" y="1973"/>
                        </Array>
                    </mxGeometry>
                </mxCell>
                <mxCell id="333" value="" style="endArrow=none;html=1;" edge="1" parent="1">
                    <mxGeometry width="50" height="50" relative="1" as="geometry">
                        <mxPoint x="614" y="1979" as="sourcePoint"/>
                        <mxPoint x="629" y="1979" as="targetPoint"/>
                        <Array as="points">
                            <mxPoint x="614" y="1979"/>
                        </Array>
                    </mxGeometry>
                </mxCell>
                <mxCell id="334" value="" style="endArrow=none;html=1;" edge="1" parent="1">
                    <mxGeometry width="50" height="50" relative="1" as="geometry">
                        <mxPoint x="614" y="1985" as="sourcePoint"/>
                        <mxPoint x="629" y="1985" as="targetPoint"/>
                        <Array as="points">
                            <mxPoint x="614" y="1985"/>
                        </Array>
                    </mxGeometry>
                </mxCell>
                <mxCell id="335" value="&lt;div style=&quot;text-align: left&quot;&gt;&lt;br&gt;&lt;/div&gt;" style="rounded=0;whiteSpace=wrap;html=1;fontSize=9;strokeColor=#2A2A2A;fontColor=#F0F0F0;" vertex="1" parent="1">
                    <mxGeometry x="502" y="2002" width="120" height="26" as="geometry"/>
                </mxCell>
                <mxCell id="336" value="" style="group" vertex="1" connectable="0" parent="1">
                    <mxGeometry x="482" y="2029" width="160" height="270" as="geometry"/>
                </mxCell>
                <mxCell id="337" value="Show more" style="text;strokeColor=none;fillColor=none;spacing=0;spacingTop=0;whiteSpace=wrap;overflow=hidden;rounded=0;verticalAlign=top;horizontal=1;fontStyle=4;fontSize=9;align=center;" vertex="1" parent="336">
                    <mxGeometry y="250" width="160" height="20" as="geometry"/>
                </mxCell>
                <mxCell id="338" value="" style="group" vertex="1" connectable="0" parent="336">
                    <mxGeometry x="10" width="150" height="250" as="geometry"/>
                </mxCell>
                <mxCell id="339" value="" style="group" vertex="1" connectable="0" parent="338">
                    <mxGeometry width="150" height="50" as="geometry"/>
                </mxCell>
                <mxCell id="340" value="thumb&lt;br&gt;img" style="rounded=0;whiteSpace=wrap;html=1;fillColor=#f5f5f5;strokeColor=#666666;fontColor=#333333;" vertex="1" parent="339">
                    <mxGeometry y="5" width="40" height="40" as="geometry"/>
                </mxCell>
                <mxCell id="341" value="" style="group" vertex="1" connectable="0" parent="339">
                    <mxGeometry x="50" width="100" height="50" as="geometry"/>
                </mxCell>
                <mxCell id="342" value="[List item title]" style="text;strokeColor=none;fillColor=none;spacing=0;spacingTop=0;whiteSpace=wrap;overflow=hidden;rounded=0;verticalAlign=top;horizontal=1;fontSize=9;fontStyle=1" vertex="1" parent="341">
                    <mxGeometry width="100" height="20" as="geometry"/>
                </mxCell>
                <mxCell id="343" value="[Description of list item] lorem ipsum dolor sit." style="text;strokeColor=none;fillColor=none;spacing=0;spacingTop=0;whiteSpace=wrap;overflow=hidden;rounded=0;verticalAlign=top;horizontal=1;fontSize=9;fontStyle=0" vertex="1" parent="341">
                    <mxGeometry y="10" width="100" height="30" as="geometry"/>
                </mxCell>
                <mxCell id="344" value="" style="group" vertex="1" connectable="0" parent="338">
                    <mxGeometry y="50" width="150" height="50" as="geometry"/>
                </mxCell>
                <mxCell id="345" value="thumb&lt;br&gt;img" style="rounded=0;whiteSpace=wrap;html=1;fillColor=#f5f5f5;strokeColor=#666666;fontColor=#333333;" vertex="1" parent="344">
                    <mxGeometry y="5" width="40" height="40" as="geometry"/>
                </mxCell>
                <mxCell id="346" value="" style="group" vertex="1" connectable="0" parent="344">
                    <mxGeometry x="50" width="100" height="50" as="geometry"/>
                </mxCell>
                <mxCell id="347" value="[List item title]" style="text;strokeColor=none;fillColor=none;spacing=0;spacingTop=0;whiteSpace=wrap;overflow=hidden;rounded=0;verticalAlign=top;horizontal=1;fontSize=9;fontStyle=1" vertex="1" parent="346">
                    <mxGeometry width="100" height="20" as="geometry"/>
                </mxCell>
                <mxCell id="348" value="[Description of list item] lorem ipsum dolor sit." style="text;strokeColor=none;fillColor=none;spacing=0;spacingTop=0;whiteSpace=wrap;overflow=hidden;rounded=0;verticalAlign=top;horizontal=1;fontSize=9;fontStyle=0" vertex="1" parent="346">
                    <mxGeometry y="10" width="100" height="30" as="geometry"/>
                </mxCell>
                <mxCell id="349" value="" style="group" vertex="1" connectable="0" parent="338">
                    <mxGeometry y="100" width="150" height="50" as="geometry"/>
                </mxCell>
                <mxCell id="350" value="thumb&lt;br&gt;img" style="rounded=0;whiteSpace=wrap;html=1;fillColor=#f5f5f5;strokeColor=#666666;fontColor=#333333;" vertex="1" parent="349">
                    <mxGeometry y="5" width="40" height="40" as="geometry"/>
                </mxCell>
                <mxCell id="351" value="" style="group" vertex="1" connectable="0" parent="349">
                    <mxGeometry x="50" width="100" height="50" as="geometry"/>
                </mxCell>
                <mxCell id="352" value="[List item title]" style="text;strokeColor=none;fillColor=none;spacing=0;spacingTop=0;whiteSpace=wrap;overflow=hidden;rounded=0;verticalAlign=top;horizontal=1;fontSize=9;fontStyle=1" vertex="1" parent="351">
                    <mxGeometry width="100" height="20" as="geometry"/>
                </mxCell>
                <mxCell id="353" value="[Description of list item] lorem ipsum dolor sit." style="text;strokeColor=none;fillColor=none;spacing=0;spacingTop=0;whiteSpace=wrap;overflow=hidden;rounded=0;verticalAlign=top;horizontal=1;fontSize=9;fontStyle=0" vertex="1" parent="351">
                    <mxGeometry y="10" width="100" height="30" as="geometry"/>
                </mxCell>
                <mxCell id="354" value="" style="group" vertex="1" connectable="0" parent="338">
                    <mxGeometry y="150" width="150" height="50" as="geometry"/>
                </mxCell>
                <mxCell id="355" value="thumb&lt;br&gt;img" style="rounded=0;whiteSpace=wrap;html=1;fillColor=#f5f5f5;strokeColor=#666666;fontColor=#333333;" vertex="1" parent="354">
                    <mxGeometry y="5" width="40" height="40" as="geometry"/>
                </mxCell>
                <mxCell id="356" value="" style="group" vertex="1" connectable="0" parent="354">
                    <mxGeometry x="50" width="100" height="50" as="geometry"/>
                </mxCell>
                <mxCell id="357" value="[List item title]" style="text;strokeColor=none;fillColor=none;spacing=0;spacingTop=0;whiteSpace=wrap;overflow=hidden;rounded=0;verticalAlign=top;horizontal=1;fontSize=9;fontStyle=1" vertex="1" parent="356">
                    <mxGeometry width="100" height="20" as="geometry"/>
                </mxCell>
                <mxCell id="358" value="[Description of list item] lorem ipsum dolor sit." style="text;strokeColor=none;fillColor=none;spacing=0;spacingTop=0;whiteSpace=wrap;overflow=hidden;rounded=0;verticalAlign=top;horizontal=1;fontSize=9;fontStyle=0" vertex="1" parent="356">
                    <mxGeometry y="10" width="100" height="30" as="geometry"/>
                </mxCell>
                <mxCell id="359" value="" style="group" vertex="1" connectable="0" parent="338">
                    <mxGeometry y="200" width="150" height="50" as="geometry"/>
                </mxCell>
                <mxCell id="360" value="thumb&lt;br&gt;img" style="rounded=0;whiteSpace=wrap;html=1;fillColor=#f5f5f5;strokeColor=#666666;fontColor=#333333;" vertex="1" parent="359">
                    <mxGeometry y="5" width="40" height="40" as="geometry"/>
                </mxCell>
                <mxCell id="361" value="" style="group" vertex="1" connectable="0" parent="359">
                    <mxGeometry x="50" width="100" height="50" as="geometry"/>
                </mxCell>
                <mxCell id="362" value="[List item title]" style="text;strokeColor=none;fillColor=none;spacing=0;spacingTop=0;whiteSpace=wrap;overflow=hidden;rounded=0;verticalAlign=top;horizontal=1;fontSize=9;fontStyle=1" vertex="1" parent="361">
                    <mxGeometry width="100" height="20" as="geometry"/>
                </mxCell>
                <mxCell id="363" value="[Description of list item] lorem ipsum dolor sit." style="text;strokeColor=none;fillColor=none;spacing=0;spacingTop=0;whiteSpace=wrap;overflow=hidden;rounded=0;verticalAlign=top;horizontal=1;fontSize=9;fontStyle=0" vertex="1" parent="361">
                    <mxGeometry y="10" width="100" height="30" as="geometry"/>
                </mxCell>
                <mxCell id="368" style="edgeStyle=none;html=1;exitX=0.5;exitY=1;exitDx=0;exitDy=0;entryX=0.5;entryY=0;entryDx=0;entryDy=0;fontSize=17;fontColor=#F0F0F0;fillColor=#f5f5f5;strokeColor=#666666;strokeWidth=2;" edge="1" parent="1">
                    <mxGeometry relative="1" as="geometry">
                        <mxPoint x="324" y="1442" as="sourcePoint"/>
                        <mxPoint x="360" y="1599" as="targetPoint"/>
                    </mxGeometry>
                </mxCell>
                <mxCell id="370" style="edgeStyle=none;html=1;exitX=1;exitY=0.5;exitDx=0;exitDy=0;entryX=0.25;entryY=0;entryDx=0;entryDy=0;fontSize=17;fontColor=#F0F0F0;strokeWidth=3;fillColor=#f5f5f5;strokeColor=#666666;" edge="1" parent="1" source="110">
                    <mxGeometry relative="1" as="geometry">
                        <mxPoint x="429" y="1345" as="sourcePoint"/>
                        <mxPoint x="571" y="1609" as="targetPoint"/>
                    </mxGeometry>
                </mxCell>
                <mxCell id="377" style="edgeStyle=none;html=1;exitX=0;exitY=1;exitDx=0;exitDy=0;fontSize=17;fontColor=#F0F0F0;strokeWidth=3;fillColor=#f5f5f5;strokeColor=#666666;" edge="1" parent="1" source="372">
                    <mxGeometry relative="1" as="geometry">
                        <mxPoint x="210" y="1610" as="targetPoint"/>
                    </mxGeometry>
                </mxCell>
                <mxCell id="372" value="" style="rounded=0;whiteSpace=wrap;html=1;" vertex="1" parent="1">
                    <mxGeometry x="403" y="1165" width="33" height="30" as="geometry"/>
                </mxCell>
                <mxCell id="373" value="" style="endArrow=none;html=1;" edge="1" parent="1">
                    <mxGeometry width="50" height="50" relative="1" as="geometry">
                        <mxPoint x="412" y="1181" as="sourcePoint"/>
                        <mxPoint x="427" y="1181" as="targetPoint"/>
                        <Array as="points">
                            <mxPoint x="412" y="1181"/>
                        </Array>
                    </mxGeometry>
                </mxCell>
                <mxCell id="374" value="" style="endArrow=none;html=1;" edge="1" parent="1">
                    <mxGeometry width="50" height="50" relative="1" as="geometry">
                        <mxPoint x="412" y="1187" as="sourcePoint"/>
                        <mxPoint x="427" y="1187" as="targetPoint"/>
                        <Array as="points">
                            <mxPoint x="412" y="1187"/>
                        </Array>
                    </mxGeometry>
                </mxCell>
                <mxCell id="376" value="" style="endArrow=none;html=1;" edge="1" parent="1">
                    <mxGeometry width="50" height="50" relative="1" as="geometry">
                        <mxPoint x="412" y="1175.87" as="sourcePoint"/>
                        <mxPoint x="427" y="1175.87" as="targetPoint"/>
                        <Array as="points">
                            <mxPoint x="412" y="1175.87"/>
                        </Array>
                    </mxGeometry>
                </mxCell>
                <mxCell id="380" value="search bar" style="rounded=1;whiteSpace=wrap;html=1;fontSize=17;fontColor=#F0F0F0;strokeColor=#FFFFFF;" vertex="1" parent="1">
                    <mxGeometry x="58" y="1215" width="132" height="25" as="geometry"/>
                </mxCell>
            </root>
        </mxGraphModel>
    </diagram>
</mxfile>